<svg id="visual" viewBox="0 0 900 900" width="900" height="900" xmlns="http://www.w3.org/2000/svg" xmlns:xlink="http://www.w3.org/1999/xlink" version="1.1"><rect x="0" y="0" width="900" height="900" fill="#001220"></rect><path d="M0 547L8.3 494.2C16.7 441.3 33.3 335.7 50 309C66.7 282.3 83.3 334.7 100 374.3C116.7 414 133.3 441 150 431.5C166.7 422 183.3 376 200 361.5C216.7 347 233.3 364 250 403.7C266.7 443.3 283.3 505.7 300 485C316.7 464.3 333.3 360.7 350 318.2C366.7 275.7 383.3 294.3 400 305.5C416.7 316.7 433.3 320.3 450 336.7C466.7 353 483.3 382 500 395.3C516.7 408.7 533.3 406.3 550 388.3C566.7 370.3 583.3 336.7 600 335.5C616.7 334.3 633.3 365.7 650 360.2C666.7 354.7 683.3 312.3 700 295C716.7 277.7 733.3 285.3 750 304C766.7 322.7 783.3 352.3 800 373.5C816.7 394.7 833.3 407.3 850 397.3C866.7 387.3 883.3 354.7 891.7 338.3L900 322L900 901L891.7 901C883.3 901 866.7 901 850 901C833.3 901 816.7 901 800 901C783.3 901 766.7 901 750 901C733.3 901 716.7 901 700 901C683.3 901 666.7 901 650 901C633.3 901 616.7 901 600 901C583.3 901 566.7 901 550 901C533.3 901 516.7 901 500 901C483.3 901 466.7 901 450 901C433.3 901 416.7 901 400 901C383.3 901 366.7 901 350 901C333.3 901 316.7 901 300 901C283.3 901 266.7 901 250 901C233.3 901 216.7 901 200 901C183.3 901 166.7 901 150 901C133.3 901 116.7 901 100 901C83.3 901 66.7 901 50 901C33.3 901 16.7 901 8.3 901L0 901Z" fill="#fa7268"></path><path d="M0 328L8.3 349.3C16.7 370.7 33.3 413.3 50 454.7C66.7 496 83.3 536 100 527.8C116.7 519.7 133.3 463.3 150 431C166.7 398.7 183.3 390.3 200 406.7C216.7 423 233.3 464 250 491C266.7 518 283.3 531 300 532.2C316.7 533.3 333.3 522.7 350 494.3C366.7 466 383.3 420 400 404.5C416.7 389 433.3 404 450 399.2C466.7 394.3 483.3 369.7 500 354.8C516.7 340 533.3 335 550 382.7C566.7 430.3 583.3 530.7 600 528.2C616.7 525.7 633.3 420.3 650 416.3C666.7 412.3 683.3 509.7 700 559.3C716.7 609 733.3 611 750 573C766.7 535 783.3 457 800 419.3C816.7 381.7 833.3 384.3 850 394C866.7 403.7 883.3 420.3 891.7 428.7L900 437L900 901L891.7 901C883.3 901 866.7 901 850 901C833.3 901 816.7 901 800 901C783.3 901 766.7 901 750 901C733.3 901 716.7 901 700 901C683.3 901 666.7 901 650 901C633.3 901 616.7 901 600 901C583.3 901 566.7 901 550 901C533.3 901 516.7 901 500 901C483.3 901 466.7 901 450 901C433.3 901 416.7 901 400 901C383.3 901 366.7 901 350 901C333.3 901 316.7 901 300 901C283.3 901 266.7 901 250 901C233.3 901 216.7 901 200 901C183.3 901 166.7 901 150 901C133.3 901 116.7 901 100 901C83.3 901 66.7 901 50 901C33.3 901 16.7 901 8.3 901L0 901Z" fill="#f36567"></path><path d="M0 439L8.3 448.5C16.7 458 33.3 477 50 508.3C66.7 539.7 83.3 583.3 100 589.8C116.7 596.3 133.3 565.7 150 569.7C166.7 573.7 183.3 612.3 200 622.7C216.7 633 233.3 615 250 591.7C266.7 568.3 283.3 539.7 300 543.3C316.7 547 333.3 583 350 589.3C366.7 595.7 383.3 572.3 400 580.5C416.7 588.7 433.3 628.3 450 628.3C466.7 628.3 483.3 588.7 500 544C516.7 499.3 533.3 449.7 550 460.2C566.7 470.7 583.3 541.3 600 588.3C616.7 635.3 633.3 658.7 650 657C666.7 655.3 683.3 628.7 700 592.3C716.7 556 733.3 510 750 519.2C766.7 528.3 783.3 592.7 800 613.8C816.7 635 833.3 613 850 572.7C866.7 532.3 883.3 473.7 891.7 444.3L900 415L900 901L891.7 901C883.3 901 866.7 901 850 901C833.3 901 816.7 901 800 901C783.3 901 766.7 901 750 901C733.3 901 716.7 901 700 901C683.3 901 666.7 901 650 901C633.3 901 616.7 901 600 901C583.3 901 566.7 901 550 901C533.3 901 516.7 901 500 901C483.3 901 466.7 901 450 901C433.3 901 416.7 901 400 901C383.3 901 366.7 901 350 901C333.3 901 316.7 901 300 901C283.3 901 266.7 901 250 901C233.3 901 216.7 901 200 901C183.3 901 166.7 901 150 901C133.3 901 116.7 901 100 901C83.3 901 66.7 901 50 901C33.3 901 16.7 901 8.3 901L0 901Z" fill="#eb5967"></path><path d="M0 640L8.3 620.3C16.7 600.7 33.3 561.3 50 549.7C66.7 538 83.3 554 100 577.8C116.7 601.7 133.3 633.3 150 638.8C166.7 644.3 183.3 623.7 200 629.5C216.7 635.3 233.3 667.7 250 688.5C266.7 709.3 283.3 718.7 300 700.3C316.7 682 333.3 636 350 624.2C366.7 612.3 383.3 634.7 400 629C416.7 623.3 433.3 589.7 450 567.7C466.7 545.7 483.3 535.3 500 562C516.7 588.7 533.3 652.3 550 654.8C566.7 657.3 583.3 598.7 600 572.7C616.7 546.7 633.3 553.3 650 570.2C666.7 587 683.3 614 700 613.5C716.7 613 733.3 585 750 590.8C766.7 596.7 783.3 636.3 800 662.2C816.7 688 833.3 700 850 679.8C866.7 659.7 883.3 607.3 891.7 581.2L900 555L900 901L891.7 901C883.3 901 866.7 901 850 901C833.3 901 816.7 901 800 901C783.3 901 766.7 901 750 901C733.3 901 716.7 901 700 901C683.3 901 666.7 901 650 901C633.3 901 616.7 901 600 901C583.3 901 566.7 901 550 901C533.3 901 516.7 901 500 901C483.3 901 466.7 901 450 901C433.3 901 416.7 901 400 901C383.3 901 366.7 901 350 901C333.3 901 316.7 901 300 901C283.3 901 266.7 901 250 901C233.3 901 216.7 901 200 901C183.3 901 166.7 901 150 901C133.3 901 116.7 901 100 901C83.3 901 66.7 901 50 901C33.3 901 16.7 901 8.3 901L0 901Z" fill="#e34c67"></path><path d="M0 590L8.3 588.8C16.7 587.7 33.3 585.3 50 610.7C66.7 636 83.3 689 100 694.5C116.7 700 133.3 658 150 636.5C166.7 615 183.3 614 200 609.5C216.7 605 233.3 597 250 624C266.7 651 283.3 713 300 723C316.7 733 333.3 691 350 674.8C366.7 658.7 383.3 668.3 400 657.5C416.7 646.7 433.3 615.3 450 617C466.7 618.7 483.3 653.3 500 682C516.7 710.7 533.3 733.3 550 722.8C566.7 712.3 583.3 668.7 600 661.2C616.7 653.7 633.3 682.3 650 679.3C666.7 676.3 683.3 641.7 700 639.7C716.7 637.7 733.3 668.3 750 676.8C766.7 685.3 783.3 671.7 800 664.5C816.7 657.3 833.3 656.7 850 654C866.7 651.3 883.3 646.7 891.7 644.3L900 642L900 901L891.7 901C883.3 901 866.7 901 850 901C833.3 901 816.7 901 800 901C783.3 901 766.7 901 750 901C733.3 901 716.7 901 700 901C683.3 901 666.7 901 650 901C633.3 901 616.7 901 600 901C583.3 901 566.7 901 550 901C533.3 901 516.7 901 500 901C483.3 901 466.7 901 450 901C433.3 901 416.7 901 400 901C383.3 901 366.7 901 350 901C333.3 901 316.7 901 300 901C283.3 901 266.7 901 250 901C233.3 901 216.7 901 200 901C183.3 901 166.7 901 150 901C133.3 901 116.7 901 100 901C83.3 901 66.7 901 50 901C33.3 901 16.7 901 8.3 901L0 901Z" fill="#da3f67"></path><path d="M0 740L8.3 728.5C16.7 717 33.3 694 50 679.8C66.7 665.7 83.3 660.3 100 671.2C116.7 682 133.3 709 150 718C166.7 727 183.3 718 200 729.8C216.7 741.7 233.3 774.3 250 782.8C266.7 791.3 283.3 775.7 300 771C316.7 766.3 333.3 772.7 350 759.2C366.7 745.7 383.3 712.3 400 718.8C416.7 725.3 433.3 771.7 450 773.3C466.7 775 483.3 732 500 706.5C516.7 681 533.3 673 550 684.7C566.7 696.3 583.3 727.7 600 726.8C616.7 726 633.3 693 650 691.2C666.7 689.3 683.3 718.7 700 732.7C716.7 746.7 733.3 745.3 750 743C766.7 740.7 783.3 737.3 800 725.3C816.7 713.3 833.3 692.7 850 684.2C866.7 675.7 883.3 679.3 891.7 681.2L900 683L900 901L891.7 901C883.3 901 866.7 901 850 901C833.3 901 816.7 901 800 901C783.3 901 766.7 901 750 901C733.3 901 716.7 901 700 901C683.3 901 666.7 901 650 901C633.3 901 616.7 901 600 901C583.3 901 566.7 901 550 901C533.3 901 516.7 901 500 901C483.3 901 466.7 901 450 901C433.3 901 416.7 901 400 901C383.3 901 366.7 901 350 901C333.3 901 316.7 901 300 901C283.3 901 266.7 901 250 901C233.3 901 216.7 901 200 901C183.3 901 166.7 901 150 901C133.3 901 116.7 901 100 901C83.3 901 66.7 901 50 901C33.3 901 16.7 901 8.3 901L0 901Z" fill="#d03267"></path><path d="M0 797L8.3 802.8C16.7 808.7 33.3 820.3 50 816.5C66.7 812.7 83.3 793.3 100 799.5C116.7 805.7 133.3 837.3 150 835C166.7 832.7 183.3 796.3 200 783.2C216.7 770 233.3 780 250 779.3C266.7 778.7 283.3 767.3 300 771.2C316.7 775 333.3 794 350 801.7C366.7 809.3 383.3 805.7 400 803.5C416.7 801.3 433.3 800.7 450 812C466.7 823.3 483.3 846.7 500 842.2C516.7 837.7 533.3 805.3 550 785.5C566.7 765.7 583.3 758.3 600 756.2C616.7 754 633.3 757 650 767.7C666.7 778.3 683.3 796.7 700 815.7C716.7 834.7 733.3 854.3 750 854.3C766.7 854.3 783.3 834.7 800 827.3C816.7 820 833.3 825 850 830.3C866.7 835.7 883.3 841.3 891.7 844.2L900 847L900 901L891.7 901C883.3 901 866.7 901 850 901C833.3 901 816.7 901 800 901C783.3 901 766.7 901 750 901C733.3 901 716.7 901 700 901C683.3 901 666.7 901 650 901C633.3 901 616.7 901 600 901C583.3 901 566.7 901 550 901C533.3 901 516.7 901 500 901C483.3 901 466.7 901 450 901C433.3 901 416.7 901 400 901C383.3 901 366.7 901 350 901C333.3 901 316.7 901 300 901C283.3 901 266.7 901 250 901C233.3 901 216.7 901 200 901C183.3 901 166.7 901 150 901C133.3 901 116.7 901 100 901C83.3 901 66.7 901 50 901C33.3 901 16.7 901 8.3 901L0 901Z" fill="#c62368"></path></svg>