<svg id="visual" viewBox="0 0 900 900" width="900" height="900" xmlns="http://www.w3.org/2000/svg" xmlns:xlink="http://www.w3.org/1999/xlink" version="1.1"><path d="M0 91L10.7 77.5C21.3 64 42.7 37 64.2 26.5C85.7 16 107.3 22 128.8 37C150.3 52 171.7 76 193 76C214.3 76 235.7 52 257 49C278.3 46 299.7 64 321.2 74.5C342.7 85 364.3 88 385.8 85C407.3 82 428.7 73 450 68.5C471.3 64 492.7 64 514.2 61C535.7 58 557.3 52 578.8 46C600.3 40 621.7 34 643 29.5C664.3 25 685.7 22 707 35.5C728.3 49 749.7 79 771.2 94C792.7 109 814.3 109 835.8 104.5C857.3 100 878.7 91 889.3 86.5L900 82L900 0L889.3 0C878.7 0 857.3 0 835.8 0C814.3 0 792.7 0 771.2 0C749.7 0 728.3 0 707 0C685.7 0 664.3 0 643 0C621.7 0 600.3 0 578.8 0C557.3 0 535.7 0 514.2 0C492.7 0 471.3 0 450 0C428.7 0 407.3 0 385.8 0C364.3 0 342.7 0 321.2 0C299.7 0 278.3 0 257 0C235.7 0 214.3 0 193 0C171.7 0 150.3 0 128.8 0C107.3 0 85.7 0 64.2 0C42.7 0 21.3 0 10.7 0L0 0Z" fill="#dd6ba9"></path><path d="M0 181L10.7 163C21.3 145 42.7 109 64.2 103C85.7 97 107.3 121 128.8 134.5C150.3 148 171.7 151 193 140.5C214.3 130 235.7 106 257 113.5C278.3 121 299.7 160 321.2 166C342.7 172 364.3 145 385.8 130C407.3 115 428.7 112 450 116.5C471.3 121 492.7 133 514.2 128.5C535.7 124 557.3 103 578.8 100C600.3 97 621.7 112 643 109C664.3 106 685.7 85 707 94C728.3 103 749.7 142 771.2 164.5C792.7 187 814.3 193 835.8 181C857.3 169 878.7 139 889.3 124L900 109L900 80L889.3 84.5C878.7 89 857.3 98 835.8 102.5C814.3 107 792.7 107 771.2 92C749.7 77 728.3 47 707 33.5C685.7 20 664.3 23 643 27.5C621.7 32 600.3 38 578.8 44C557.3 50 535.7 56 514.2 59C492.7 62 471.3 62 450 66.5C428.7 71 407.3 80 385.8 83C364.3 86 342.7 83 321.2 72.5C299.7 62 278.3 44 257 47C235.7 50 214.3 74 193 74C171.7 74 150.3 50 128.8 35C107.3 20 85.7 14 64.2 24.5C42.7 35 21.3 62 10.7 75.5L0 89Z" fill="#cd5fbe"></path><path d="M0 235L10.7 221.5C21.3 208 42.7 181 64.2 175C85.7 169 107.3 184 128.8 199C150.3 214 171.7 229 193 223C214.3 217 235.7 190 257 194.5C278.3 199 299.7 235 321.2 239.5C342.7 244 364.3 217 385.8 203.5C407.3 190 428.7 190 450 191.5C471.3 193 492.7 196 514.2 187C535.7 178 557.3 157 578.8 149.5C600.3 142 621.7 148 643 146.5C664.3 145 685.7 136 707 151C728.3 166 749.7 205 771.2 221.5C792.7 238 814.3 232 835.8 211C857.3 190 878.7 154 889.3 136L900 118L900 107L889.3 122C878.7 137 857.3 167 835.8 179C814.3 191 792.7 185 771.2 162.5C749.7 140 728.3 101 707 92C685.7 83 664.3 104 643 107C621.7 110 600.3 95 578.8 98C557.3 101 535.7 122 514.2 126.5C492.7 131 471.3 119 450 114.5C428.7 110 407.3 113 385.8 128C364.3 143 342.7 170 321.2 164C299.7 158 278.3 119 257 111.5C235.7 104 214.3 128 193 138.5C171.7 149 150.3 146 128.8 132.5C107.3 119 85.7 95 64.2 101C42.7 107 21.3 143 10.7 161L0 179Z" fill="#ae5cd7"></path><path d="M0 298L10.7 278.5C21.3 259 42.7 220 64.2 206.5C85.7 193 107.3 205 128.8 227.5C150.3 250 171.7 283 193 284.5C214.3 286 235.7 256 257 262C278.3 268 299.7 310 321.2 311.5C342.7 313 364.3 274 385.8 250C407.3 226 428.7 217 450 212.5C471.3 208 492.7 208 514.2 203.5C535.7 199 557.3 190 578.8 182.5C600.3 175 621.7 169 643 169C664.3 169 685.7 175 707 200.5C728.3 226 749.7 271 771.2 284.5C792.7 298 814.3 280 835.8 256C857.3 232 878.7 202 889.3 187L900 172L900 116L889.3 134C878.7 152 857.3 188 835.8 209C814.3 230 792.7 236 771.2 219.5C749.7 203 728.3 164 707 149C685.7 134 664.3 143 643 144.5C621.7 146 600.3 140 578.8 147.5C557.3 155 535.7 176 514.2 185C492.7 194 471.3 191 450 189.5C428.7 188 407.3 188 385.8 201.5C364.3 215 342.7 242 321.2 237.5C299.7 233 278.3 197 257 192.5C235.7 188 214.3 215 193 221C171.7 227 150.3 212 128.8 197C107.3 182 85.7 167 64.2 173C42.7 179 21.3 206 10.7 219.5L0 233Z" fill="#7261f1"></path><path d="M0 514L10.7 532C21.3 550 42.7 586 64.2 562C85.7 538 107.3 454 128.8 419.5C150.3 385 171.7 400 193 409C214.3 418 235.7 421 257 436C278.3 451 299.7 478 321.2 464.5C342.7 451 364.3 397 385.8 367C407.3 337 428.7 331 450 353.5C471.3 376 492.7 427 514.2 460C535.7 493 557.3 508 578.8 523C600.3 538 621.7 553 643 514C664.3 475 685.7 382 707 379C728.3 376 749.7 463 771.2 475C792.7 487 814.3 424 835.8 376C857.3 328 878.7 295 889.3 278.5L900 262L900 170L889.3 185C878.7 200 857.3 230 835.8 254C814.3 278 792.7 296 771.2 282.5C749.7 269 728.3 224 707 198.5C685.7 173 664.3 167 643 167C621.7 167 600.3 173 578.8 180.5C557.3 188 535.7 197 514.2 201.5C492.7 206 471.3 206 450 210.5C428.7 215 407.3 224 385.8 248C364.3 272 342.7 311 321.2 309.5C299.7 308 278.3 266 257 260C235.7 254 214.3 284 193 282.5C171.7 281 150.3 248 128.8 225.5C107.3 203 85.7 191 64.2 204.5C42.7 218 21.3 257 10.7 276.5L0 296Z" fill="#0066ff"></path><path d="M0 640L10.7 652C21.3 664 42.7 688 64.2 674.5C85.7 661 107.3 610 128.8 599.5C150.3 589 171.7 619 193 638.5C214.3 658 235.7 667 257 667C278.3 667 299.7 658 321.2 643C342.7 628 364.3 607 385.8 610C407.3 613 428.7 640 450 637C471.3 634 492.7 601 514.2 604C535.7 607 557.3 646 578.8 668.5C600.3 691 621.7 697 643 673C664.3 649 685.7 595 707 590.5C728.3 586 749.7 631 771.2 659.5C792.7 688 814.3 700 835.8 710.5C857.3 721 878.7 730 889.3 734.5L900 739L900 260L889.3 276.5C878.7 293 857.3 326 835.8 374C814.3 422 792.7 485 771.2 473C749.7 461 728.3 374 707 377C685.7 380 664.3 473 643 512C621.7 551 600.3 536 578.8 521C557.3 506 535.7 491 514.2 458C492.7 425 471.3 374 450 351.5C428.7 329 407.3 335 385.8 365C364.3 395 342.7 449 321.2 462.5C299.7 476 278.3 449 257 434C235.7 419 214.3 416 193 407C171.7 398 150.3 383 128.8 417.5C107.3 452 85.7 536 64.2 560C42.7 584 21.3 548 10.7 530L0 512Z" fill="#0066ff"></path><path d="M0 676L10.7 685C21.3 694 42.7 712 64.2 710.5C85.7 709 107.3 688 128.8 686.5C150.3 685 171.7 703 193 721C214.3 739 235.7 757 257 752.5C278.3 748 299.7 721 321.2 703C342.7 685 364.3 676 385.8 692.5C407.3 709 428.7 751 450 755.5C471.3 760 492.7 727 514.2 713.5C535.7 700 557.3 706 578.8 718C600.3 730 621.7 748 643 745C664.3 742 685.7 718 707 719.5C728.3 721 749.7 748 771.2 757C792.7 766 814.3 757 835.8 770.5C857.3 784 878.7 820 889.3 838L900 856L900 737L889.3 732.5C878.7 728 857.3 719 835.8 708.5C814.3 698 792.7 686 771.2 657.5C749.7 629 728.3 584 707 588.5C685.7 593 664.3 647 643 671C621.7 695 600.3 689 578.8 666.5C557.3 644 535.7 605 514.2 602C492.7 599 471.3 632 450 635C428.7 638 407.3 611 385.8 608C364.3 605 342.7 626 321.2 641C299.7 656 278.3 665 257 665C235.7 665 214.3 656 193 636.5C171.7 617 150.3 587 128.8 597.5C107.3 608 85.7 659 64.2 672.5C42.7 686 21.3 662 10.7 650L0 638Z" fill="#7261f1"></path><path d="M0 784L10.7 778C21.3 772 42.7 760 64.2 755.5C85.7 751 107.3 754 128.8 764.5C150.3 775 171.7 793 193 803.5C214.3 814 235.7 817 257 815.5C278.3 814 299.7 808 321.2 797.5C342.7 787 364.3 772 385.8 773.5C407.3 775 428.7 793 450 800.5C471.3 808 492.7 805 514.2 812.5C535.7 820 557.3 838 578.8 839.5C600.3 841 621.7 826 643 817C664.3 808 685.7 805 707 805C728.3 805 749.7 808 771.2 805C792.7 802 814.3 793 835.8 802C857.3 811 878.7 838 889.3 851.5L900 865L900 854L889.3 836C878.7 818 857.3 782 835.8 768.5C814.3 755 792.7 764 771.2 755C749.7 746 728.3 719 707 717.5C685.7 716 664.3 740 643 743C621.7 746 600.3 728 578.8 716C557.3 704 535.7 698 514.2 711.5C492.7 725 471.3 758 450 753.5C428.7 749 407.3 707 385.8 690.5C364.3 674 342.7 683 321.2 701C299.7 719 278.3 746 257 750.5C235.7 755 214.3 737 193 719C171.7 701 150.3 683 128.8 684.5C107.3 686 85.7 707 64.2 708.5C42.7 710 21.3 692 10.7 683L0 674Z" fill="#ae5cd7"></path><path d="M0 847L10.7 844C21.3 841 42.7 835 64.2 835C85.7 835 107.3 841 128.8 851.5C150.3 862 171.7 877 193 884.5C214.3 892 235.7 892 257 881.5C278.3 871 299.7 850 321.2 842.5C342.7 835 364.3 841 385.8 850C407.3 859 428.7 871 450 866.5C471.3 862 492.7 841 514.2 842.5C535.7 844 557.3 868 578.8 880C600.3 892 621.7 892 643 880C664.3 868 685.7 844 707 835C728.3 826 749.7 832 771.2 841C792.7 850 814.3 862 835.8 871C857.3 880 878.7 886 889.3 889L900 892L900 863L889.3 849.5C878.7 836 857.3 809 835.8 800C814.3 791 792.7 800 771.2 803C749.7 806 728.3 803 707 803C685.7 803 664.3 806 643 815C621.7 824 600.3 839 578.8 837.5C557.3 836 535.7 818 514.2 810.5C492.7 803 471.3 806 450 798.5C428.7 791 407.3 773 385.8 771.5C364.3 770 342.7 785 321.2 795.5C299.7 806 278.3 812 257 813.5C235.7 815 214.3 812 193 801.5C171.7 791 150.3 773 128.8 762.5C107.3 752 85.7 749 64.2 753.5C42.7 758 21.3 770 10.7 776L0 782Z" fill="#cd5fbe"></path><path d="M0 901L10.7 901C21.3 901 42.7 901 64.2 901C85.7 901 107.3 901 128.8 901C150.3 901 171.7 901 193 901C214.3 901 235.7 901 257 901C278.3 901 299.7 901 321.2 901C342.7 901 364.3 901 385.8 901C407.3 901 428.7 901 450 901C471.3 901 492.7 901 514.2 901C535.7 901 557.3 901 578.8 901C600.3 901 621.7 901 643 901C664.3 901 685.7 901 707 901C728.3 901 749.7 901 771.2 901C792.7 901 814.3 901 835.8 901C857.3 901 878.7 901 889.3 901L900 901L900 890L889.3 887C878.7 884 857.3 878 835.8 869C814.3 860 792.7 848 771.2 839C749.7 830 728.3 824 707 833C685.7 842 664.3 866 643 878C621.7 890 600.3 890 578.8 878C557.3 866 535.7 842 514.2 840.5C492.7 839 471.3 860 450 864.5C428.7 869 407.3 857 385.8 848C364.3 839 342.7 833 321.2 840.5C299.7 848 278.3 869 257 879.5C235.7 890 214.3 890 193 882.5C171.7 875 150.3 860 128.8 849.5C107.3 839 85.7 833 64.2 833C42.7 833 21.3 839 10.7 842L0 845Z" fill="#dd6ba9"></path></svg>